<?xml version="1.0" encoding="utf-8"?>
<!-- Generator: Adobe Illustrator 16.0.0, SVG Export Plug-In . SVG Version: 6.00 Build 0)  -->
<!DOCTYPE svg PUBLIC "-//W3C//DTD SVG 1.1//EN" "http://www.w3.org/Graphics/SVG/1.1/DTD/svg11.dtd">
<svg version="1.1" id="Layer_1" xmlns="http://www.w3.org/2000/svg" xmlns:xlink="http://www.w3.org/1999/xlink" x="0px" y="0px"
	 width="600px" height="198.892px" viewBox="0 0 600 198.892" enable-background="new 0 0 600 198.892" xml:space="preserve">
<g>
	<path fill="#231F20" d="M198.997,36.92c16.705-11.253,9.258-16.171-0.474-17.79c-9.731-1.624-26.891,13.564-53.221,41.844
		c-26.301,28.266-50.9,67.057-48.863,61.633c2.068-5.427,6.811-23.356,22.337-48.983c8.471-14.062-8.132-21.32-17.407-12.572
		c-7.377,6.928-12.935,13.436-24.57,27.662c-11.675,14.197-34.721,39.524-34.721,39.524s13.928-25.711,23.415-39.713
		c9.438-13.993,21.675-35.192,23.405-39.737c1.702-4.49-0.738-11.687-4.352-13.021c-3.595-1.381-15.641,0.249-34.693,9.538
		c-13.733,6.706-23.507,12.796-26.72,23.984c-5.127,17.86,5.244,13.407,15.933,7.101c10.659-6.282,26.454-17.85,17.323-4.764
		c-3.841,5.552-45.319,72.762-53.702,97.525c-8.415,24.742,4.177,29.322,20.645,10.999C53.856,146.211,90.8,98.148,90.8,98.148
		s-27.522,42.347-31.865,72.751c-4.313,30.442,15.102,11.982,24.936-2.932c6.433-9.76,23.745-32.352,51.538-67.291
		C163.202,65.699,182.311,48.133,198.997,36.92z"/>
	<path fill="#231F20" d="M230.367,172.9c-12.108-0.491-22.262,1.089-23.106-7.404c-0.067-0.73,0.013-1.677,0.219-2.785
		c25.586-16.747,48.304-40.448,75.414-66.749c46.021-44.637,71.548-87.429,51.26-95.143c-20.287-7.737-63.554,41.327-83.498,65.109
		c-13.103,15.557-43.543,52.046-57.063,82.955c-31.73,18.959-55.317,23.604-57.808,12.196c14.88-6.304,29.458-14.34,29.458-14.34
		c32.415-20.454,71.027-64.461,35.165-78.071c-22.635-8.647-61.418,36.865-73.167,59.48c-3.019,5.9-6.727,13.857-9.25,21.981
		c-6.632,2.669-12.438,5.017-17.008,7.636c-1.589,0.894-2.961,1.775-4.087,2.616c-6.541,4.879-6.465,8.438-2.034,10.701
		c5.562,2.894,13.896-2.141,19.795-3.106c0.187-0.022,0.305-0.063,0.492-0.065c0.6,12.592,8.759,21.654,33.881,17.695
		c13.848-2.131,26.265-6.053,37.823-11.436c-0.1,5.93,1.186,11.124,4.481,15.245c4.595,5.862,21.959,12.238,39.705,8.215
		C234.561,196.806,242.494,173.39,230.367,172.9z M271.994,67.229c46.369-46.487,74.708-67.133,7.679,8.416
		c-18.864,21.286-38.375,39.068-56.68,53.157C233.501,111.377,249.58,89.675,271.994,67.229z M186.12,91.905
		c0,0,14.525,3.539-9.516,25.011c-11.372,10.117-22.989,17.175-33.874,22.59C156.692,117.204,186.12,91.905,186.12,91.905z"/>
	<path fill="#231F20" d="M598.717,105.648c4.065-10.748-2.16-15.854-9.81-17.377c-7.581-1.526-32.517-1.628-59.826,34.365
		c-11.714,15.366-14.627,28.879-12.714,39.64c-11.976,3.888-19.508,1.32-16.517-1.452c4.232-3.829,30.384-40.291,12.157-49.952
		c-18.138-9.654-38.257,7.285-38.257,7.285s-2.642-10.606-8.701-12.895c-11.892-4.486-30.687,8.809-30.687,8.809
		s3.324-3.959,14.838-11.521c11.378-7.417,19.541-17.73,17.292-22.665c-2.2-4.925-14.129-9.506-26.689,2.095
		c-8.545,7.755-15.091,18.748-18.542,25.062c-4.557,0.854-9.285,1.512-13.82,1.755c11.097-19.843,13.202-37.244,3.307-47.418
		c-18.867-19.416-47.696,10.508-51.31,20.056c-1.354,3.56-2.172,9.689-0.759,15.977c-9.78,10.272-19.607,23.863-28.917,36.877
		c-0.507,0.618-0.925,1.272-1.372,1.928c-9.177,13.468-28.53,27.252-48.744,29.82c-22.608,2.89-19.899-9.29,0.065-33.044
		c20.002-23.812,33.073-36.578,42.185-42.636c9.104-6.108,3.967,11.047,3.967,11.047c-6.166,12.687-15.779,19.934-9.818,22.19
		c5.971,2.25,19.59-4.829,25.422-27.199c5.755-22.364-2.756-26.146-10.191-27.054c-6.369-0.79-23.803,8.695-52.634,41.41
		c-28.91,32.68-42.215,53.526-32.819,68.03c9.515,14.544,31.871,9.044,49.835-1.512c6.188-3.632,11.636-7.287,16.366-10.786
		c-3.632,9.732-4.682,18.155,0.143,21.166c14.394,9.227,44.738-17.076,73.146-48.606c5.746-6.47,10.842-12.843,15.139-19.129
		c6.29-0.281,11.941-1.263,16.969-2.665c-8.73,6.883-26.064,22.314-37.959,44.183c-11.761,21.551,13.628,21.564,16.672,17.253
		c2.997-4.312,5.128-17.155,19.081-32.297c14.003-15.181,28.232-27.514,33.004-25.687c4.763,1.806,3.594,1.363-8.17,21.455
		c-5.275,9.059-15.399,22.494-18.697,31.128c-3.103,8.328,10.516,15.973,19.718,2.034c31.854-48.01,55.366-48.54,55.366-48.54
		s-5.207,10.972-11.641,20.829c-6.471,9.831-19.15,38.078,2.39,35.724c14.838-1.617,25.502-4.485,34.382-8.244
		c4.934,7.26,12.319,12.059,19.489,13.753c18.834,4.419,40.505-2.337,47.399-13.345c6.953-11.027-1.974-19.885-12.745-13.06
		c-10.812,6.776-24.384,13.914-39.536,6.785c-0.515-0.261-1.091-0.6-1.518-0.99c6.939-4.351,13.43-9.327,21.207-14.731
		C574.437,140.66,594.592,116.38,598.717,105.648z M365.369,141.046c-30.767,30.598-50.883,40.997-17.606-5.97
		c7.644-10.828,13.482-18.808,18.088-24.761c4.065,4.022,10.064,7.237,18.632,8.771C379.56,125.852,373.28,133.165,365.369,141.046z
		 M392.061,107.469c-0.94-0.285-1.831-0.583-2.614-0.95c-6.203-2.878-10.767-5.476-13.613-8.145
		c4.373-4.66,7.039-6.358,10.167-8.194c6.236-3.723,2.02-11.107-3.23-14.319c8.492-7.004,17.079-8.407,18.06,0.835
		C401.497,83.358,399.717,93.801,392.061,107.469z M532.53,154.077c3.686-12.278,15.356-27.802,20.682-32.983
		c13.566-13.412,22.929-17.214,27.259-14.229C584.763,109.889,552.867,139.957,532.53,154.077z"/>
</g>
</svg>
